<mxfile host="app.diagrams.net" modified="2022-08-18T02:08:06.263Z" agent="5.0 (Macintosh; Intel Mac OS X 10_15_7) AppleWebKit/537.36 (KHTML, like Gecko) Chrome/104.0.0.0 Safari/537.36" etag="Bf67Lr9_BsRcGEdsWcZo" version="20.2.4" type="github">
  <diagram id="vdhP7oa0-BuwG7zkVX3x" name="第 1 页">
    <mxGraphModel dx="1186" dy="653" grid="1" gridSize="10" guides="1" tooltips="1" connect="1" arrows="1" fold="1" page="1" pageScale="1" pageWidth="827" pageHeight="1169" math="0" shadow="0">
      <root>
        <mxCell id="0" />
        <mxCell id="1" parent="0" />
        <UserObject label="调度中心" treeRoot="1" id="_gs4HrVfk2Gb3OGJnt1F-1">
          <mxCell style="whiteSpace=wrap;html=1;align=center;treeFolding=1;treeMoving=1;newEdgeStyle={&quot;edgeStyle&quot;:&quot;elbowEdgeStyle&quot;,&quot;startArrow&quot;:&quot;none&quot;,&quot;endArrow&quot;:&quot;none&quot;};" vertex="1" parent="1">
            <mxGeometry x="260" y="120" width="120" height="60" as="geometry" />
          </mxCell>
        </UserObject>
        <mxCell id="_gs4HrVfk2Gb3OGJnt1F-2" value="" style="endArrow=classic;html=1;rounded=0;entryX=0.175;entryY=0.025;entryDx=0;entryDy=0;entryPerimeter=0;" edge="1" parent="1" target="_gs4HrVfk2Gb3OGJnt1F-1">
          <mxGeometry width="50" height="50" relative="1" as="geometry">
            <mxPoint x="280" y="20" as="sourcePoint" />
            <mxPoint x="290" y="60" as="targetPoint" />
          </mxGeometry>
        </mxCell>
        <mxCell id="_gs4HrVfk2Gb3OGJnt1F-3" value="广播" style="edgeLabel;html=1;align=center;verticalAlign=middle;resizable=0;points=[];" vertex="1" connectable="0" parent="_gs4HrVfk2Gb3OGJnt1F-2">
          <mxGeometry x="-0.2413" y="1" relative="1" as="geometry">
            <mxPoint as="offset" />
          </mxGeometry>
        </mxCell>
        <mxCell id="_gs4HrVfk2Gb3OGJnt1F-4" value="" style="endArrow=classic;html=1;rounded=0;entryX=0.175;entryY=0.025;entryDx=0;entryDy=0;entryPerimeter=0;" edge="1" parent="1">
          <mxGeometry width="50" height="50" relative="1" as="geometry">
            <mxPoint x="319.5" y="18.5" as="sourcePoint" />
            <mxPoint x="320.5" y="120" as="targetPoint" />
          </mxGeometry>
        </mxCell>
        <mxCell id="_gs4HrVfk2Gb3OGJnt1F-5" value="SDK 通知" style="edgeLabel;html=1;align=center;verticalAlign=middle;resizable=0;points=[];" vertex="1" connectable="0" parent="_gs4HrVfk2Gb3OGJnt1F-4">
          <mxGeometry x="-0.2413" y="1" relative="1" as="geometry">
            <mxPoint as="offset" />
          </mxGeometry>
        </mxCell>
        <mxCell id="_gs4HrVfk2Gb3OGJnt1F-6" value="" style="endArrow=classic;html=1;rounded=0;entryX=0.175;entryY=0.025;entryDx=0;entryDy=0;entryPerimeter=0;" edge="1" parent="1">
          <mxGeometry width="50" height="50" relative="1" as="geometry">
            <mxPoint x="360" y="18.5" as="sourcePoint" />
            <mxPoint x="361" y="120" as="targetPoint" />
          </mxGeometry>
        </mxCell>
        <mxCell id="_gs4HrVfk2Gb3OGJnt1F-7" value="其他" style="edgeLabel;html=1;align=center;verticalAlign=middle;resizable=0;points=[];" vertex="1" connectable="0" parent="_gs4HrVfk2Gb3OGJnt1F-6">
          <mxGeometry x="-0.2413" y="1" relative="1" as="geometry">
            <mxPoint as="offset" />
          </mxGeometry>
        </mxCell>
        <mxCell id="_gs4HrVfk2Gb3OGJnt1F-11" value="ScheduleDispatcher&#xa;" style="swimlane;fontStyle=1;align=center;verticalAlign=top;childLayout=stackLayout;horizontal=1;startSize=26;horizontalStack=0;resizeParent=1;resizeParentMax=0;resizeLast=0;collapsible=1;marginBottom=0;" vertex="1" parent="1">
          <mxGeometry y="400" width="190" height="120" as="geometry" />
        </mxCell>
        <mxCell id="_gs4HrVfk2Gb3OGJnt1F-12" value="+ taskCollection: TaskCollection" style="text;strokeColor=none;fillColor=none;align=left;verticalAlign=top;spacingLeft=4;spacingRight=4;overflow=hidden;rotatable=0;points=[[0,0.5],[1,0.5]];portConstraint=eastwest;" vertex="1" parent="_gs4HrVfk2Gb3OGJnt1F-11">
          <mxGeometry y="26" width="190" height="26" as="geometry" />
        </mxCell>
        <mxCell id="_gs4HrVfk2Gb3OGJnt1F-13" value="" style="line;strokeWidth=1;fillColor=none;align=left;verticalAlign=middle;spacingTop=-1;spacingLeft=3;spacingRight=3;rotatable=0;labelPosition=right;points=[];portConstraint=eastwest;" vertex="1" parent="_gs4HrVfk2Gb3OGJnt1F-11">
          <mxGeometry y="52" width="190" height="8" as="geometry" />
        </mxCell>
        <mxCell id="_gs4HrVfk2Gb3OGJnt1F-14" value="+ dispatch()&#xa;+ register()&#xa;+ unregister()" style="text;strokeColor=none;fillColor=none;align=left;verticalAlign=top;spacingLeft=4;spacingRight=4;overflow=hidden;rotatable=0;points=[[0,0.5],[1,0.5]];portConstraint=eastwest;" vertex="1" parent="_gs4HrVfk2Gb3OGJnt1F-11">
          <mxGeometry y="60" width="190" height="60" as="geometry" />
        </mxCell>
        <mxCell id="_gs4HrVfk2Gb3OGJnt1F-15" value="TaskCollection" style="swimlane;fontStyle=1;align=center;verticalAlign=top;childLayout=stackLayout;horizontal=1;startSize=26;horizontalStack=0;resizeParent=1;resizeParentMax=0;resizeLast=0;collapsible=1;marginBottom=0;" vertex="1" parent="1">
          <mxGeometry x="270" y="400" width="210" height="110" as="geometry" />
        </mxCell>
        <mxCell id="_gs4HrVfk2Gb3OGJnt1F-16" value="+ type: Map&lt;String, TreeSet&lt;Task&gt;&gt;" style="text;strokeColor=none;fillColor=none;align=left;verticalAlign=top;spacingLeft=4;spacingRight=4;overflow=hidden;rotatable=0;points=[[0,0.5],[1,0.5]];portConstraint=eastwest;" vertex="1" parent="_gs4HrVfk2Gb3OGJnt1F-15">
          <mxGeometry y="26" width="210" height="34" as="geometry" />
        </mxCell>
        <mxCell id="_gs4HrVfk2Gb3OGJnt1F-17" value="" style="line;strokeWidth=1;fillColor=none;align=left;verticalAlign=middle;spacingTop=-1;spacingLeft=3;spacingRight=3;rotatable=0;labelPosition=right;points=[];portConstraint=eastwest;" vertex="1" parent="_gs4HrVfk2Gb3OGJnt1F-15">
          <mxGeometry y="60" width="210" height="8" as="geometry" />
        </mxCell>
        <mxCell id="_gs4HrVfk2Gb3OGJnt1F-18" value="+ onTrigger(event: String)&#xa;+ filter(event: String): List&lt;Task&gt;" style="text;strokeColor=none;fillColor=none;align=left;verticalAlign=top;spacingLeft=4;spacingRight=4;overflow=hidden;rotatable=0;points=[[0,0.5],[1,0.5]];portConstraint=eastwest;" vertex="1" parent="_gs4HrVfk2Gb3OGJnt1F-15">
          <mxGeometry y="68" width="210" height="42" as="geometry" />
        </mxCell>
      </root>
    </mxGraphModel>
  </diagram>
</mxfile>
